<svg xmlns="http://www.w3.org/2000/svg" xml:space="preserve" id="Layer_1" width="800" height="800" version="1.1" viewBox="0 0 120 120"><style>.st1{fill:#ffbf56}.st3{fill:#fff}</style><path d="M24.5 102.5h64.3c3.5 0 6.4-2.9 6.4-6.4v-46c0-3.5-2.9-6.4-6.4-6.4H24.5c-3.5 0-6.4 2.9-6.4 6.4v46c0 3.5 2.9 6.4 6.4 6.4z" style="fill:#f4b253"/><path d="m93.3 60.2-26 15 25.5 23.1c.3-.6.5-1.2.5-1.9V60.2zM89.2 100.6c.8 0 1.6-.3 2.3-.7h.1s.1 0 .1-.1l-26-23.6-5.9 3.4c-.9.5-2 .8-3 .8-.5 0-1-.1-1.6-.2-.5-.1-1-.3-1.5-.6l-5.9-3.4L22.2 100c.6.3 1.3.5 2 .5h65z" class="st1"/><path d="M93.3 49.8c0-2.3-1.9-4.1-4.1-4.1h-65c-2.3 0-4.1 1.9-4.1 4.1V58l28.1 16.2 6.5 3.7c1.3.7 2.9.7 4.1 0L93.3 58v-8.2zM20.1 96.4c0 .9.3 1.6.7 2.3L46 75.2l-26-15v36.2z" class="st1"/><path d="M65.6 51.9h6.2L69.2 60c-.2.6.5 1.1 1 .8l14-8.9H95c3.8 0 6.8-3.1 6.8-6.8V24.3c0-3.8-3.1-6.8-6.8-6.8H65.6c-3.8 0-6.8 3.1-6.8 6.8v20.8c0 3.8 3 6.8 6.8 6.8z" style="fill:#ff9374"/><path d="M73.4 30.3h13.8c.8 0 1.4-.6 1.4-1.4s-.6-1.4-1.4-1.4H73.4c-.8 0-1.4.6-1.4 1.4s.6 1.4 1.4 1.4zM93 33.8H67.7c-.8 0-1.4.6-1.4 1.4s.6 1.4 1.4 1.4H93c.8 0 1.4-.6 1.4-1.4s-.7-1.4-1.4-1.4zM87.2 40.1H73.4c-.8 0-1.4.6-1.4 1.4s.6 1.4 1.4 1.4h13.8c.8 0 1.4-.6 1.4-1.4s-.6-1.4-1.4-1.4z" class="st3"/></svg>